<?xml version="1.0" encoding="UTF-8" standalone="no"?>
<!-- Created with Inkscape (http://www.inkscape.org/) -->

<svg
   width="300"
   height="44.917"
   viewBox="0 0 79.374999 11.88429"
   version="1.1"
   id="svg5"
   inkscape:version="1.1.2 (b8e25be833, 2022-02-05)"
   sodipodi:docname="logo.svg"
   xmlns:inkscape="http://www.inkscape.org/namespaces/inkscape"
   xmlns:sodipodi="http://sodipodi.sourceforge.net/DTD/sodipodi-0.dtd"
   xmlns="http://www.w3.org/2000/svg"
   xmlns:svg="http://www.w3.org/2000/svg">
  <sodipodi:namedview
     id="namedview7"
     pagecolor="#ffffff"
     bordercolor="#999999"
     borderopacity="1"
     inkscape:pageshadow="0"
     inkscape:pageopacity="0"
     inkscape:pagecheckerboard="0"
     inkscape:document-units="mm"
     showgrid="false"
     inkscape:zoom="2.5620932"
     inkscape:cx="4.8788233"
     inkscape:cy="82.939996"
     inkscape:window-width="1920"
     inkscape:window-height="1043"
     inkscape:window-x="0"
     inkscape:window-y="0"
     inkscape:window-maximized="1"
     inkscape:current-layer="layer1"
     units="px" />
  <defs
     id="defs2" />
  <g
     inkscape:label="Layer 1"
     inkscape:groupmode="layer"
     id="layer1">
    <g
       id="g20559"
       transform="matrix(1.2324521,0,0,1.2324521,-117.09488,-110.90469)"
       style="stroke-width:0.811391;fill:#ffffff">
      <path
         d="m 99.867251,98.120864 h -2.485629 l -0.43408,1.405595 h -1.93786 l 2.759512,-7.524065 h 1.705317 l 2.780179,7.524065 h -1.94819 z m -2.051548,-1.400427 h 1.617467 l -0.811317,-2.609651 z"
         style="font-weight:900;font-size:10.5833px;line-height:1.25;font-family:Roboto;-inkscape-font-specification:'Roboto Heavy';letter-spacing:0px;stroke-width:0.21468;fill:#ffffff"
         id="path20118" />
      <path
         id="path20120-3"
         style="font-weight:900;font-size:10.5833px;line-height:1.25;font-family:Roboto;-inkscape-font-specification:'Roboto Heavy';letter-spacing:0px;fill:#ffffff;stroke-width:0.21468"
         d="m 102.80251,92.00264 v 6.202207 c 0.0855,-0.05283 0.18234,-0.123902 0.30386,-0.221692 0.0819,-0.06587 0.11441,-0.09395 0.29507,-0.146246 0.0585,-0.017 0.015,-0.0508 0.014,-0.0987 -0.01,-0.43552 -0.0155,-0.246526 0.0512,-0.543637 0.0102,-0.04525 0.0133,-0.09169 0.0326,-0.135392 0.17637,-0.400209 0.58017,-1.180264 0.86816,-1.471745 0.34581,-0.349941 0.39885,-0.56233 0.36225,-0.97255 -0.009,-0.100989 0.0258,-0.194689 0.0517,-0.289388 0.006,-0.0226 5e-4,-0.03224 -0.0186,-0.03824 -0.13084,-0.04177 -0.17368,-0.738804 0.23047,-0.988054 0.13915,-0.0858 0.39271,-0.22969 0.55604,-0.21549 0.0453,0.002 0.041,0.0444 0.11472,0.0062 0.28793,-0.1495 0.45294,-0.426818 0.56586,-0.284737 0.0571,0.0719 0.0576,0.194479 0.1018,0.25218 0.0395,0.05205 0.0374,0.116668 0.0434,0.177768 0.0119,0.12518 -0.0462,0.235162 -0.16795,0.390673 -0.031,0.03957 -0.25814,0.329957 -0.24804,0.387056 0.035,0.198639 0.12332,0.278289 0.13332,0.393259 0.0281,0.335319 0.0105,0.174225 0.0692,0.388606 0.0616,0.224679 0.0843,0.315852 0.0837,0.485241 -9.7e-4,0.278529 0.13831,0.272933 0.18811,0.454752 0.0213,0.07763 0.0412,0.155861 0.0382,0.236162 -0.0121,0.358241 0.009,0.102534 -0.0651,0.652674 -0.003,0.024 -0.0128,0.04414 -0.0315,0.05684 -0.0328,0.02224 -0.12039,0.13534 -0.23719,0.20464 -0.0215,0.0128 -0.0185,0.02595 0.003,0.10025 0.0736,0.253141 0.36737,0.915432 0.39687,0.953432 0.0671,0.0871 0.10977,0.07051 0.20257,0.07751 0.0973,0.0084 0.11987,0.05448 0.16227,0.107487 0.0315,0.03933 0.0287,0.101758 -0.007,0.134358 -0.0454,0.0417 0.0194,0.03923 0.0382,0.07493 0.0211,0.03924 0.003,0.07534 -0.006,0.112138 -0.007,0.0275 -0.035,0.02773 -0.0532,0.04082 -0.0564,0.04045 -0.11485,0.07804 -0.18035,0.102836 -0.0328,0.0119 -0.11121,0.07466 -0.25218,-0.0041 -0.1676,-0.09377 -0.25546,-0.2814 -0.29145,-0.345199 -0.0123,-0.0213 -0.0285,-0.01353 -0.0284,-0.001 5e-4,0.0572 -0.0874,0.06903 -0.0408,0.09664 0.0369,0.0219 0.10643,0.09656 0.0594,0.156062 -0.0285,0.03605 -0.0573,0.07139 -0.0765,0.113688 -0.004,0.0097 -0.0122,0.01932 -0.0212,0.02532 -0.0748,0.0583 -0.14558,0.200128 -0.27699,0.09457 -0.0695,-0.05594 -0.0776,-0.103206 -0.18448,-0.120406 -0.0715,-0.011 -0.14364,-0.0078 -0.20464,-0.0098 l -5.2e-4,-5.19e-4 c -0.11239,-6e-4 -0.21353,-0.0095 -0.31471,-0.0155 -0.13405,-0.008 -0.25598,-0.0144 -0.27388,-0.214974 -0.007,-0.0732 0.002,-0.07823 -0.0124,-0.08423 -0.006,-0.001 -0.0109,0.0012 -0.0139,0.0062 -0.0329,0.04738 -0.083,0.07712 -0.12247,0.117822 -0.0288,0.0297 -0.0599,0.05966 -0.1018,0.06666 -0.0928,0.0165 -0.18592,0.03322 -0.28112,0.02222 -0.51022,-0.0614 -0.25716,-0.144251 -0.6196,-0.09095 -0.0793,0.0117 -0.15621,0.03543 -0.23771,0.03566 -0.0506,10e-5 -0.10328,7.72e-4 -0.15038,0.02377 -0.12283,0.05993 -0.29118,0.14951 -0.44597,0.20102 v 0.864547 h 2.4753 c 0.65112,-0.0034 1.24024,-0.158475 1.76733,-0.465087 0.53055,-0.31006 0.94052,-0.737257 1.2299,-1.281576 0.29284,-0.547775 0.43925,-1.166172 0.43925,-1.855184 v -0.346234 c -0.003,-0.682122 -0.15503,-1.297075 -0.45475,-1.844847 -0.29628,-0.551214 -0.70969,-0.976172 -1.24023,-1.275892 -0.53055,-0.303165 -1.12828,-0.454753 -1.79318,-0.454753 z m 2.69027,5.142839 c -0.0138,0.0012 -0.028,0.0072 -0.0418,0.01861 -0.008,0.0068 -0.009,0.01432 -0.006,0.02532 0.0456,0.171839 0.0201,0.07164 0.0506,0.294555 0.005,0.03833 -0.009,0.07025 -0.0253,0.103354 -0.0313,0.06505 -0.0542,0.134419 -0.0889,0.197919 -0.0844,0.154789 -0.0485,0.143968 0.15348,0.180869 0.0433,0.0091 0.0874,0.005 0.12299,0.01602 l -5.2e-4,-5.16e-4 c 0.0329,-0.002 0.0585,-0.0052 0.0842,-0.0072 0.11168,-0.0092 0.13405,0.03943 0.17105,0.01033 0.0636,-0.0498 0.0799,-0.04398 0.0739,-0.07958 -0.0275,-0.157382 -0.15752,-0.262237 -0.43304,-0.723987 -0.0155,-0.026 -0.0374,-0.03773 -0.0605,-0.03566 z m -0.34881,1.007173 c -0.0141,0.0012 -0.0203,0.0089 -0.0248,0.02584 -0.0133,0.05013 -0.0522,0.09816 0.0295,0.115756 0.16869,0.0362 0.29891,0.03467 0.33331,0.03514 0.0188,0.001 0.0364,0.0112 0.0558,0.0062 0.0652,-0.006 0.13087,-0.0069 0.19637,-0.01085 0.073,-0.0041 0.0784,-0.07214 0.14263,-0.05994 0.0212,0.004 0.0283,-0.01484 0.007,-0.02584 -0.0737,-0.0376 -0.0581,-0.0028 -0.24495,-0.01499 -0.34065,-0.02212 -0.4527,-0.07499 -0.49506,-0.07131 z" />
      <path
         d="m 116.01608,95.919455 q 0,1.100705 -0.40824,1.948196 -0.40824,0.84749 -1.16271,1.307409 -0.74931,0.454751 -1.71049,0.454751 -0.96118,0 -1.70532,-0.439248 -0.74413,-0.444416 -1.16271,-1.266069 -0.41341,-0.821652 -0.43408,-1.886183 v -0.423746 q 0,-1.105872 0.40307,-1.948195 0.40825,-0.847491 1.16272,-1.30741 0.75964,-0.459918 1.72599,-0.459918 0.95601,0 1.70531,0.454751 0.74931,0.454751 1.16272,1.297074 0.41858,0.837156 0.42374,1.922357 z m -1.84484,-0.315225 q 0,-1.121375 -0.37723,-1.700149 -0.37207,-0.583942 -1.0697,-0.583942 -1.36426,0 -1.44177,2.04638 l -0.005,0.552936 q 0,1.105872 0.3669,1.700149 0.3669,0.594278 1.09037,0.594278 0.6873,0 1.05937,-0.583942 0.37206,-0.583942 0.37723,-1.679479 z"
         style="font-weight:900;font-size:10.5833px;line-height:1.25;font-family:Roboto;-inkscape-font-specification:'Roboto Heavy';letter-spacing:0px;stroke-width:0.21468;fill:#ffffff"
         id="path20122" />
      <path
         d="m 122.41877,93.402821 h -2.25825 v 6.123638 h -1.81384 v -6.123638 h -2.21691 v -1.400427 h 6.289 z"
         style="font-weight:900;font-size:10.5833px;line-height:1.25;font-family:Roboto;-inkscape-font-specification:'Roboto Heavy';letter-spacing:0px;stroke-width:0.21468;fill:#ffffff"
         id="path20124" />
      <path
         d="m 126.8371,98.120864 h -2.48563 l -0.43408,1.405595 h -1.93786 l 2.75951,-7.524065 h 1.70532 l 2.78018,7.524065 h -1.9482 z m -2.05155,-1.400427 h 1.61747 l -0.81132,-2.609651 z"
         style="font-weight:900;font-size:10.5833px;line-height:1.25;font-family:Roboto;-inkscape-font-specification:'Roboto Heavy';letter-spacing:0px;stroke-width:0.21468;fill:#ffffff"
         id="path20126" />
      <path
         d="m 137.14651,96.529235 h -2.92487 v 2.997224 h -1.81384 v -7.524065 h 5.03327 v 1.400427 h -3.21943 v 1.731155 h 2.92487 z"
         style="font-weight:900;font-size:10.5833px;line-height:1.25;font-family:Roboto;-inkscape-font-specification:'Roboto Heavy';letter-spacing:0px;stroke-width:0.21468;fill:#ffffff"
         id="path20128" />
      <path
         d="m 141.47698,98.120864 h -2.48563 l -0.43408,1.405595 h -1.93786 l 2.75951,-7.524065 h 1.70532 l 2.78018,7.524065 h -1.94819 z m -2.05155,-1.400427 h 1.61747 l -0.81132,-2.609651 z m 1.04386,-6.733417 h 1.83968 l -1.4366,1.622635 h -1.4211 z"
         style="font-weight:900;font-size:10.5833px;line-height:1.25;font-family:Roboto;-inkscape-font-specification:'Roboto Heavy';letter-spacing:0px;stroke-width:0.21468;fill:#ffffff"
         id="path20130" />
      <path
         d="m 150.39114,96.978819 q -0.0362,0.785479 -0.42375,1.390091 -0.38757,0.599445 -1.09037,0.930173 -0.69763,0.330728 -1.59679,0.330728 -1.48311,0 -2.33577,-0.966346 -0.85266,-0.966346 -0.85266,-2.728507 v -0.372069 q 0,-1.105872 0.3824,-1.932692 0.38758,-0.831988 1.11104,-1.281572 0.72347,-0.454751 1.67431,-0.454751 1.36943,0 2.20141,0.723468 0.83199,0.7183 0.94568,1.984368 h -1.80867 q -0.0207,-0.687294 -0.34623,-0.987016 -0.32556,-0.299723 -0.99219,-0.299723 -0.67695,0 -0.99218,0.506428 -0.31522,0.506427 -0.33073,1.617467 v 0.532266 q 0,1.204057 0.29972,1.720819 0.30489,0.516763 1.04387,0.516763 0.62528,0 0.95601,-0.294555 0.33072,-0.294555 0.35139,-0.93534 z"
         style="font-weight:900;font-size:10.5833px;line-height:1.25;font-family:Roboto;-inkscape-font-specification:'Roboto Heavy';letter-spacing:0px;stroke-width:0.21468;fill:#ffffff"
         id="path20132" />
      <path
         d="m 153.18166,99.526459 h -1.80867 v -7.524065 h 1.80867 z"
         style="font-weight:900;font-size:10.5833px;line-height:1.25;font-family:Roboto;-inkscape-font-specification:'Roboto Heavy';letter-spacing:0px;stroke-width:0.21468;fill:#ffffff"
         id="path20134" />
      <path
         d="m 156.25639,98.1312 h 3.15742 v 1.395259 h -4.97125 v -7.524065 h 1.81383 z"
         style="font-weight:900;font-size:10.5833px;line-height:1.25;font-family:Roboto;-inkscape-font-specification:'Roboto Heavy';letter-spacing:0px;stroke-width:0.21468;fill:#ffffff"
         id="path20136" />
    </g>
  </g>
</svg>
